<svg width="19" height="18" viewBox="0 0 19 18" fill="none" xmlns="http://www.w3.org/2000/svg">
<path d="M15.5947 0C16.4567 0 17.2833 0.34241 17.8928 0.951903C18.5023 1.5614 18.8447 2.38805 18.8447 3.25V14.75C18.8447 15.612 18.5023 16.4386 17.8928 17.0481C17.2833 17.6576 16.4567 18 15.5947 18H4.09473C3.23277 18 2.40612 17.6576 1.79663 17.0481C1.18714 16.4386 0.844727 15.612 0.844727 14.75V3.25C0.844727 2.38805 1.18714 1.5614 1.79663 0.951903C2.40612 0.34241 3.23277 0 4.09473 0H15.5947ZM17.3447 5.5H2.34473V14.75C2.34473 15.716 3.12873 16.5 4.09473 16.5H15.5947C16.0589 16.5 16.504 16.3156 16.8322 15.9874C17.1604 15.6592 17.3447 15.2141 17.3447 14.75V5.5ZM5.59473 11.5C5.92625 11.5 6.24419 11.6317 6.47861 11.8661C6.71303 12.1005 6.84473 12.4185 6.84473 12.75C6.84473 13.0815 6.71303 13.3995 6.47861 13.6339C6.24419 13.8683 5.92625 14 5.59473 14C5.26321 14 4.94526 13.8683 4.71084 13.6339C4.47642 13.3995 4.34473 13.0815 4.34473 12.75C4.34473 12.4185 4.47642 12.1005 4.71084 11.8661C4.94526 11.6317 5.26321 11.5 5.59473 11.5ZM9.84473 11.5C10.1762 11.5 10.4942 11.6317 10.7286 11.8661C10.963 12.1005 11.0947 12.4185 11.0947 12.75C11.0947 13.0815 10.963 13.3995 10.7286 13.6339C10.4942 13.8683 10.1762 14 9.84473 14C9.51321 14 9.19526 13.8683 8.96084 13.6339C8.72642 13.3995 8.59473 13.0815 8.59473 12.75C8.59473 12.4185 8.72642 12.1005 8.96084 11.8661C9.19526 11.6317 9.51321 11.5 9.84473 11.5ZM5.59473 7.5C5.92625 7.5 6.24419 7.6317 6.47861 7.86612C6.71303 8.10054 6.84473 8.41848 6.84473 8.75C6.84473 9.08152 6.71303 9.39946 6.47861 9.63388C6.24419 9.8683 5.92625 10 5.59473 10C5.26321 10 4.94526 9.8683 4.71084 9.63388C4.47642 9.39946 4.34473 9.08152 4.34473 8.75C4.34473 8.41848 4.47642 8.10054 4.71084 7.86612C4.94526 7.6317 5.26321 7.5 5.59473 7.5ZM9.84473 7.5C10.1762 7.5 10.4942 7.6317 10.7286 7.86612C10.963 8.10054 11.0947 8.41848 11.0947 8.75C11.0947 9.08152 10.963 9.39946 10.7286 9.63388C10.4942 9.8683 10.1762 10 9.84473 10C9.51321 10 9.19526 9.8683 8.96084 9.63388C8.72642 9.39946 8.59473 9.08152 8.59473 8.75C8.59473 8.41848 8.72642 8.10054 8.96084 7.86612C9.19526 7.6317 9.51321 7.5 9.84473 7.5ZM14.0947 7.5C14.4262 7.5 14.7442 7.6317 14.9786 7.86612C15.213 8.10054 15.3447 8.41848 15.3447 8.75C15.3447 9.08152 15.213 9.39946 14.9786 9.63388C14.7442 9.8683 14.4262 10 14.0947 10C13.7632 10 13.4453 9.8683 13.2108 9.63388C12.9764 9.39946 12.8447 9.08152 12.8447 8.75C12.8447 8.41848 12.9764 8.10054 13.2108 7.86612C13.4453 7.6317 13.7632 7.5 14.0947 7.5ZM15.5947 1.5H4.09473C3.6306 1.5 3.18548 1.68437 2.85729 2.01256C2.5291 2.34075 2.34473 2.78587 2.34473 3.25V4H17.3447V3.25C17.3447 2.78587 17.1604 2.34075 16.8322 2.01256C16.504 1.68437 16.0589 1.5 15.5947 1.5Z" fill="#0E0603"/>
</svg>
