<svg width="165" height="52" viewBox="0 0 165 52" fill="none" xmlns="http://www.w3.org/2000/svg">
<g clip-path="url(#clip0_1_170)">
<g clip-path="url(#clip1_1_170)">
<path d="M46.208 0.529234C45.1882 0.217825 44.0862 0.0451786 43.0197 0.0387245C35.1634 -0.00322704 27.3088 0.0161352 19.4526 0C19.0234 0 18.8169 0.140376 18.6249 0.524394C12.479 12.8307 6.32016 25.129 0.164579 37.4304C0.100038 37.5563 0.0629273 37.695 0 37.8645C0.164579 37.8758 0.258163 37.8887 0.353361 37.8887C3.99023 37.8903 7.62872 37.8822 11.2656 37.9016C11.6674 37.9048 11.7948 37.6934 11.9384 37.4062C13.4245 34.4293 14.9202 31.4572 16.3966 28.4754C16.5579 28.1511 16.7435 28.0285 17.1049 28.0317C19.2719 28.0462 21.4388 28.0381 23.6058 28.043C23.7446 28.043 23.8849 28.0785 24.0834 28.1043C22.4537 31.3701 20.8564 34.568 19.1977 37.8919H20.0028C23.4461 37.8903 26.8909 37.8774 30.3342 37.8984C30.7892 37.9 31.0118 37.7628 31.2152 37.3562C36.4284 26.8974 41.6579 16.445 46.8792 5.991C47.2245 5.2988 47.5956 4.60983 47.8457 3.88213C48.3862 2.30895 47.7973 1.01652 46.208 0.529234ZM33.9839 7.53998C32.5866 10.3443 31.1861 13.147 29.7872 15.9513C28.9917 17.5422 28.1833 19.1283 27.4056 20.7273C27.1071 21.3436 26.6892 21.7083 25.9777 21.7067C23.793 21.6986 21.6083 21.7035 19.4252 21.7018C19.3913 21.7018 19.3574 21.668 19.2574 21.6147C20.4126 19.2977 21.5502 17.0162 22.6893 14.7363C23.9414 12.2273 25.2048 9.72468 26.4407 7.20921C26.6311 6.82196 26.8586 6.69127 27.2846 6.69611C29.237 6.71708 31.1909 6.70417 33.1433 6.70417C33.2788 6.70417 33.416 6.69933 33.5483 6.71708C34.1163 6.79453 34.2405 7.02365 33.9839 7.53998Z" fill="white"/>
<path d="M123.381 0.466303C122.442 0.204913 121.438 0.0629235 120.464 0.0580829C112.59 0.0306531 104.716 0.0516288 96.8418 0.0451747C96.4626 0.0435612 96.2642 0.154894 96.0915 0.501801C94.5022 3.70786 92.8903 6.90425 91.2881 10.1039C87.5721 17.526 83.8594 24.9466 80.1451 32.3688C79.2464 34.1663 78.3525 35.9653 77.415 37.8467C77.6103 37.8693 77.7022 37.8903 77.7942 37.8903C81.4311 37.8935 85.0696 37.9032 88.7065 37.8806C88.9049 37.8806 89.1889 37.6644 89.2873 37.4724C90.7895 34.5261 92.2756 31.5717 93.739 28.6045C93.9407 28.1979 94.1601 28.0526 94.6168 28.0559C98.0213 28.0785 101.427 28.1075 104.83 28.0559C106.236 28.0349 107.656 27.9074 109.038 27.6622C112.275 27.0894 114.689 25.4436 116.164 22.3569C118.631 17.1904 121.262 12.1046 123.821 6.9817C124.288 6.04747 124.794 5.12776 125.178 4.15965C125.89 2.3751 125.228 0.98263 123.381 0.467917V0.466303ZM111.393 7.56256C109.166 12.0256 106.933 16.4853 104.706 20.9483C104.493 21.3759 104.19 21.7067 103.698 21.7099C101.365 21.726 99.033 21.7164 96.5966 21.7164C97.5356 19.8318 98.4295 18.0359 99.3282 16.2401C100.832 13.2309 102.344 10.2265 103.836 7.21243C104.011 6.85907 104.198 6.69933 104.619 6.70578C106.494 6.73483 108.37 6.72031 110.245 6.72515C110.476 6.72515 110.71 6.72837 110.939 6.7558C111.525 6.82196 111.654 7.03978 111.393 7.56256Z" fill="white"/>
<path d="M88.4886 0.0613192C88.4208 0.243647 88.3805 0.398545 88.3111 0.538921C83.1688 10.817 77.9733 21.0693 72.9052 31.3846C70.9916 35.2812 67.8243 37.119 63.7421 37.6934C62.4658 37.8725 61.1572 37.8548 59.8615 37.8564C55.1404 37.8677 50.4192 37.8935 45.6997 37.8112C44.6057 37.7919 43.4682 37.503 42.4404 37.1029C40.6962 36.4236 40.1702 34.9408 40.9947 33.2659C42.8325 29.5339 44.7106 25.8212 46.5903 22.1101C46.6726 21.9487 46.9276 21.7761 47.1018 21.7761C50.8565 21.7632 54.6095 21.7745 58.3642 21.7841C58.3997 21.7841 58.4352 21.8035 58.5611 21.8422C57.6833 23.601 56.8314 25.3113 55.9762 27.0216C55.4389 28.0946 54.8903 29.1611 54.3627 30.239C54.0932 30.7924 54.2304 31.0748 54.8387 31.0828C56.7345 31.1071 58.6304 31.1006 60.5247 31.0699C61.1717 31.0603 61.5541 30.6295 61.8333 30.0679C63.3629 26.9829 64.907 23.9059 66.4463 20.8257C68.6778 16.3595 70.9061 11.8949 73.136 7.42865C73.1779 7.34475 73.2102 7.256 73.2844 7.08174H54.1368C54.2368 6.82842 54.2836 6.67352 54.3546 6.53153C55.3647 4.50495 56.3828 2.48321 57.3864 0.453404C57.5316 0.15813 57.6962 0.0274353 58.0463 0.0274353C68.0889 0.0387299 78.1314 0.0387299 88.174 0.0403435C88.2498 0.0403435 88.3273 0.0500246 88.4886 0.0613192Z" fill="white"/>
<path d="M156.059 18.5055C155.906 18.4861 155.751 18.4748 155.596 18.4748C153.72 18.4684 151.843 18.478 149.967 18.4522C149.531 18.4458 149.329 18.5974 149.166 19.0024C146.907 24.6207 144.631 30.2309 142.359 35.8443C142.086 36.5172 141.818 37.1916 141.521 37.9355C142.54 37.9355 143.467 37.9193 144.394 37.9419C144.8 37.9532 145.003 37.8177 145.157 37.4256C146.031 35.1925 146.938 32.9707 147.837 30.7472C147.89 30.6149 147.979 30.4971 148.051 30.3713C148.09 30.3842 148.129 30.3971 148.168 30.41C147.696 32.8852 147.225 35.3619 146.736 37.929C147.632 37.929 148.46 37.9387 149.286 37.9258C150.296 37.9113 150.115 38.0823 150.326 37.0496C150.778 34.8311 151.195 32.606 151.651 30.389C151.696 30.1696 151.892 29.8598 152.074 29.813C152.947 29.5823 153.587 29.0482 153.941 28.2753C154.793 26.4133 155.582 24.5223 156.353 22.6248C156.7 21.7696 157.024 20.8886 157.208 19.9883C157.403 19.0315 157.019 18.6249 156.059 18.5055ZM152.806 22.8555C152.485 23.7236 152.161 24.5917 151.78 25.4339C151.408 26.26 150.82 26.4698 149.681 26.2471C149.8 25.939 149.913 25.6388 150.033 25.3436C150.439 24.3416 150.846 23.3412 151.259 22.344C151.399 22.0036 152.087 21.8325 152.564 22.0229C152.987 22.1907 152.921 22.5473 152.806 22.8555Z" fill="white"/>
<path d="M145.444 18.4587C144.786 18.4409 144.128 18.4554 143.471 18.4554V18.449C142.89 18.449 142.303 18.3941 141.732 18.4651C141.207 18.5297 140.651 18.6378 140.197 18.8879C139.244 19.4171 138.527 20.2287 138.114 21.2372C136.209 25.8922 134.318 30.552 132.465 35.228C132.272 35.7185 132.276 36.3365 132.349 36.8722C132.459 37.6563 132.885 37.9468 133.675 37.95C134.973 37.9532 136.27 37.9871 137.564 37.9274C138.085 37.9016 138.635 37.7418 139.102 37.503C140.042 37.0222 140.71 36.2429 141.11 35.257C142.98 30.6504 144.851 26.0438 146.7 21.4292C146.876 20.9919 146.971 20.4949 146.982 20.0222C147.006 19.0282 146.445 18.4845 145.444 18.4587ZM142.596 22.9701C141.917 24.7369 141.202 26.4892 140.491 28.2431C139.786 29.9792 139.069 31.7105 138.367 33.4483C138.143 34.0001 137.746 34.3163 137.167 34.418C136.66 34.4277 136.409 34.0259 136.62 33.4838C136.989 32.5286 137.383 31.583 137.767 30.6343C138.782 28.1285 139.779 25.6146 140.831 23.1234C140.996 22.7329 141.37 22.3908 141.727 22.1375C141.898 22.0165 142.343 22.0568 142.5 22.2004C142.648 22.3392 142.682 22.7458 142.596 22.9701Z" fill="white"/>
<path d="M128.904 18.4215C128.412 19.6381 127.986 20.7321 127.518 21.8099C127.46 21.9455 127.192 22.0536 127.018 22.0616C126.323 22.0923 125.623 22.1197 124.93 22.0665C124.274 22.0165 123.898 22.3408 123.665 22.87C123.291 23.7203 122.947 24.5836 122.618 25.45C122.375 26.089 122.507 26.26 123.176 26.2681C123.62 26.2713 124.065 26.2713 124.511 26.2778C125.095 26.2842 125.292 26.4649 125.226 27.049C125.174 27.4863 125.074 27.93 124.911 28.3382C123.901 30.8715 122.889 33.4047 121.823 35.9137C121.589 36.4671 121.168 36.9577 120.764 37.4191C120.4 37.837 119.901 38.0097 119.31 38C117.594 37.9709 115.875 37.9903 114.039 37.9903C114.328 37.2594 114.576 36.6011 114.851 35.9524C115.073 35.4248 115.198 34.7197 115.604 34.4406C115.99 34.1743 116.684 34.3502 117.244 34.3486C118.863 34.3421 118.883 34.5519 119.588 32.7512C119.856 32.0671 120.153 31.3942 120.409 30.7053C120.617 30.1502 120.506 30.005 119.93 29.9969C119.485 29.9905 119.039 29.9856 118.596 29.9969C118.133 30.0082 117.881 29.7501 117.889 29.3338C117.897 28.8772 117.934 28.3931 118.099 27.9752C119.102 25.4194 120.128 22.87 121.182 20.3352C121.719 19.0427 122.625 18.3134 124.145 18.4006C125.682 18.4909 127.231 18.4215 128.904 18.4215Z" fill="white"/>
<path d="M166.041 18.5183C165.591 19.6413 165.183 20.7014 164.733 21.7437C164.675 21.8777 164.404 21.9825 164.228 21.989C163.474 22.0164 162.719 21.989 161.966 22.0116C161.799 22.0164 161.538 22.0971 161.486 22.2149C160.917 23.5218 160.379 24.8433 159.786 26.2745H162.943C162.709 26.8683 162.525 27.341 162.34 27.8122C162.133 28.3333 161.893 28.8448 161.725 29.3789C161.585 29.8291 161.331 29.9678 160.873 29.9453C160.16 29.9114 159.442 29.9194 158.727 29.9582C158.542 29.9695 158.269 30.1131 158.201 30.268C157.654 31.5281 157.146 32.8044 156.63 34.0775C156.596 34.1598 156.601 34.2598 156.573 34.4373H159.637C159.171 35.599 158.756 36.6559 158.316 37.7014C158.271 37.8063 158.075 37.908 157.948 37.908C155.9 37.9209 153.851 37.9177 151.72 37.9177C151.796 37.6772 151.841 37.4965 151.91 37.3255C154.351 31.2812 156.801 25.2402 159.231 19.1928C159.437 18.6748 159.695 18.4473 160.283 18.4634C161.985 18.5054 163.687 18.478 165.391 18.4812C165.578 18.4812 165.767 18.5022 166.041 18.5183Z" fill="white"/>
<path d="M137.814 18.4361C137.333 19.6269 136.893 20.7321 136.433 21.8293C136.394 21.9213 136.234 21.9697 136.125 22.0213C136.076 22.0439 136.007 22.0375 135.952 22.0245C134.627 21.7309 134.129 22.4263 133.682 23.5913C131.936 28.1398 130.059 32.6383 128.262 37.169C128.023 37.7709 127.746 38.0468 127.06 37.9855C126.219 37.9096 125.366 37.9661 124.427 37.9661C126.584 32.6221 128.694 27.3911 130.848 22.0568H128.872C129.348 20.8612 129.774 19.7656 130.229 18.6813C130.277 18.5652 130.49 18.4474 130.627 18.4458C132.983 18.4312 135.339 18.4361 137.814 18.4361Z" fill="white"/>
<path d="M97.0774 35.4184C96.6982 36.1735 96.3368 36.9335 95.9285 37.666C95.8608 37.7886 95.5865 37.7967 95.2444 37.9145C95.5477 37.2997 95.7656 36.856 96.0625 36.2542C95.338 36.756 95.1298 37.6047 94.2763 37.8758C94.3779 37.2788 94.4602 36.7947 94.5603 36.2025C94.0133 36.7269 94.0585 37.5999 93.3647 37.8516C93.3146 37.8032 93.2646 37.7548 93.2146 37.708C93.5696 37.0012 93.8777 36.2655 94.3053 35.6072C94.4473 35.3909 94.8991 35.3764 95.3106 35.2344C95.2137 35.7879 95.1492 36.1606 95.0718 36.6092C95.7623 36.1767 95.9189 35.0215 97.0774 35.4184Z" fill="white"/>
<path d="M94.1165 35.5232C93.9374 35.6217 93.7583 35.8056 93.5808 35.804C93.2226 35.7992 93.0645 35.9702 92.9338 36.2574C92.7499 36.6608 92.5305 37.048 92.3481 37.4514C92.2094 37.7628 92.0157 37.908 91.6091 37.7531C91.9141 37.1351 92.2126 36.5268 92.5337 35.8766C92.2949 35.8395 92.1125 35.8121 91.9286 35.783C92.069 35.3054 92.6289 35.207 94.1165 35.5232Z" fill="white"/>
</g>
</g>
<defs>
<clipPath id="clip0_1_170">
<rect width="165" height="52" fill="white"/>
</clipPath>
<clipPath id="clip1_1_170">
<rect width="166.041" height="38" fill="white"/>
</clipPath>
</defs>
</svg>
