<svg width="48" height="48" viewBox="0 0 48 48" fill="none" xmlns="http://www.w3.org/2000/svg">
<g clip-path="url(#clip0_0_119)">
<path d="M45.9188 31.5161L42.8789 28.4766C41.5236 27.1208 39.7152 26.3745 37.7875 26.3745C35.8597 26.3745 34.0518 27.1208 32.6964 28.4762L31.9325 29.2401C30.1857 30.9869 27.408 31.1484 25.4707 29.6162C24.1926 28.6055 22.9486 27.4969 21.7727 26.321C20.5964 25.1448 19.4879 23.9007 18.4775 22.6234C16.9453 20.6858 17.1072 17.9077 18.8536 16.1612L19.6172 15.3977C20.9729 14.0423 21.7192 12.234 21.7192 10.3063C21.7192 8.37853 20.9729 6.57054 19.6172 5.21483L16.5776 2.17528C14.5239 0.121201 12.007 -0.493668 9.29882 0.396591C7.32641 1.04515 5.29211 2.52062 3.57018 4.55126C2.08373 6.30431 1.05395 8.20055 0.793205 9.6566C-0.406136 13.3967 -0.0586015 17.9703 1.80102 22.8926C3.66613 27.8302 6.90014 32.688 11.1529 36.9408C15.4058 41.1936 20.2635 44.4276 25.2015 46.2927C28.207 47.4283 31.0821 48 33.7178 48C35.3979 48 36.9807 47.7674 38.4371 47.3005C39.8932 47.0398 41.7894 46.01 43.5425 44.5232C45.5731 42.8016 47.0486 40.7673 47.6971 38.7949C48.5874 36.0868 47.9725 33.5698 45.9188 31.5161ZM45.026 37.9167C43.9175 41.2877 39.6775 44.2709 37.8918 44.5411C37.8138 44.5528 37.7369 44.5712 37.6619 44.5961C31.0752 46.7692 20.9919 42.8031 13.1415 34.9526C5.29064 27.1018 1.32494 17.0185 3.49804 10.4319C3.52294 10.3568 3.54125 10.2799 3.55297 10.2015C3.82287 8.41625 6.80602 4.17626 10.177 3.0681C10.6846 2.90111 11.1705 2.81725 11.6374 2.81725C12.7152 2.81725 13.6897 3.26366 14.5895 4.16344L17.629 7.20299C18.4534 8.02733 18.9075 9.12962 18.9075 10.3063C18.9075 11.4829 18.4534 12.5848 17.629 13.4092L16.8655 14.1727C14.1101 16.9285 13.8552 21.3109 16.2722 24.3673C17.3496 25.73 18.5314 27.0564 19.7845 28.3092C21.037 29.5616 22.3634 30.7434 23.7264 31.8215C26.7825 34.2389 31.1653 33.984 33.921 31.2286L34.6846 30.4647C35.5089 29.6404 36.6112 29.1863 37.7878 29.1863C38.9645 29.1863 40.0664 29.6404 40.8907 30.4647L43.9307 33.5046C45.2197 34.7937 45.5782 36.2369 45.026 37.9167Z" fill="#FF7260"/>
<path d="M30.1172 8.17274C29.3569 8.01637 28.6132 8.50526 28.4564 9.26588C28.2997 10.0265 28.7893 10.7699 29.5496 10.9266C31.4304 11.3141 33.1417 12.2366 34.4996 13.5941C35.837 14.9315 36.754 16.6161 37.1506 18.4658C37.292 19.1254 37.875 19.5769 38.5239 19.5769C38.6213 19.5769 38.721 19.5667 38.8202 19.5454C39.5794 19.3825 40.0628 18.635 39.8998 17.8759C39.3893 15.4951 38.2094 13.3272 36.4878 11.6056C34.7406 9.85841 32.5375 8.67115 30.1172 8.17274Z" fill="#FF7260"/>
<path d="M24.4783 5.22439C29.618 4.18362 34.9006 5.777 38.6089 9.48489C42.3102 13.1862 43.9047 18.46 42.8741 23.5921C42.7214 24.3534 43.2147 25.0943 43.9757 25.2473C44.0691 25.266 44.1625 25.2752 44.254 25.2752C44.9099 25.2752 45.497 24.8134 45.631 24.1458C46.8472 18.089 44.9652 11.8649 40.597 7.49673C36.2208 3.12051 29.9872 1.24075 23.9205 2.46829C23.1595 2.62246 22.6674 3.36404 22.8215 4.12503C22.9753 4.88601 23.7166 5.37857 24.4783 5.22439Z" fill="#FF7260"/>
</g>
<defs>
<clipPath id="clip0_0_119">
<rect width="48" height="48" fill="white"/>
</clipPath>
</defs>
</svg>
