<svg width="19" height="20" viewBox="0 0 19 20" fill="none" xmlns="http://www.w3.org/2000/svg">
<path d="M9.84465 -0.00399132C11.7913 -0.00655023 13.6624 0.748851 15.0616 2.10217C16.4609 3.45548 17.2783 5.30039 17.3406 7.24601L17.3446 7.49601V11.593L18.7246 14.749C18.8076 14.9392 18.842 15.147 18.8246 15.3538C18.8072 15.5606 18.7386 15.7598 18.625 15.9334C18.5114 16.107 18.3563 16.2497 18.1739 16.3484C17.9914 16.4471 17.7871 16.4989 17.5796 16.499L12.8446 16.502C12.8457 17.283 12.5421 18.0336 11.9984 18.5943C11.4547 19.155 10.7138 19.4816 9.93319 19.5046C9.15253 19.5277 8.39366 19.2454 7.81785 18.7177C7.24205 18.1901 6.89471 17.4587 6.84965 16.679L6.84465 16.499H2.11965C1.91246 16.4988 1.70857 16.4471 1.5263 16.3486C1.34403 16.25 1.18908 16.1078 1.07537 15.9346C0.961655 15.7614 0.892739 15.5627 0.87481 15.3563C0.856881 15.1499 0.8905 14.9422 0.972647 14.752L2.34465 11.594V7.49601C2.34465 3.34101 5.69665 -0.00399132 9.84465 -0.00399132ZM11.3446 16.5L8.34465 16.502C8.34458 16.8873 8.49279 17.2579 8.75854 17.5369C9.02429 17.8158 9.38721 17.9819 9.77206 18.0005C10.1569 18.0192 10.5342 17.889 10.8257 17.637C11.1171 17.385 11.3005 17.0305 11.3376 16.647L11.3436 16.5H11.3446ZM9.84465 1.49601C6.52465 1.49601 3.84465 4.17001 3.84465 7.49601V11.906L2.50065 15H17.1976L15.8446 11.907V7.50901L15.8406 7.28401C15.7887 5.72943 15.1339 4.25606 14.0148 3.17578C12.8956 2.09549 11.4001 1.49306 9.84465 1.49601Z" fill="#0E0603"/>
</svg>
